<svg t="1654340596841" class="icon" viewBox="0 0 1024 1024" version="1.1" xmlns="http://www.w3.org/2000/svg" p-id="1164" width="200" height="200"><path d="M917.017825 364.586867c0-124.166344-108.026338-224.810693-241.282565-224.810693-2.076184 0-4.124039 0.08499-6.179987 0.137603-42.074097-65.863203-119.212641-110.029674-207.456545-110.029674-133.256227 0-241.282565 100.656491-241.282565 224.818788 0 1.610763 0.093084 3.20129 0.129509 4.808005C148.064723 298.197535 98.887889 371.191805 98.887889 454.931238c0 124.162297 108.026338 224.810693 241.282565 224.810693 7.580299 0 15.067513-0.376384 22.469738-1.003691 44.263602 49.953885 111.219534 81.792758 186.168573 81.792758 123.174794 0 224.70142-86.001786 239.384454-197.047293 76.596226-37.674853 128.824605-112.587468 128.824606-198.896838z" fill="#B3EBB5" p-id="1165"></path><path d="M675.73526 139.776174c-2.076184 0-4.124039 0.08499-6.179987 0.137603-33.732936-52.815215-90.020599-91.647551-156.494922-104.974792 52.588575 13.189639 96.896695 45.18635 124.109684 87.778482 1.768601-0.044519 25.946233 41.734137 27.735071 41.734137 114.352022 0 167.535527 61.609656 167.535527 168.158787 0 74.066762-27.73507 121.260495-93.464718 153.59312-12.598756 95.289979-99.733742 169.097724-205.428926 169.097724-64.321242 0-121.77853-27.322262-159.760966-70.189599a226.348608 226.348608 0 0 1-19.284636 0.862042c-114.352022 0-204.170265-54.191243-204.170264-160.736327 0-71.739655 32.110032-107.075259 90.546728-149.679533-1.566244-9.23558-8.053814-90.433408 13.594353-112.081575C305.93972 112.012774 329.251263 67.805832 375.29156 44.943522c-90.348418 32.486416-154.479444 114.125382-154.479444 209.763416 0 1.610763 0.093084 3.20129 0.129509 4.808006C148.064723 298.197535 98.887889 371.191805 98.887889 454.931238c0 124.162297 108.026338 224.810693 241.282565 224.810693 7.580299 0 15.067513-0.376384 22.469738-1.003691 44.263602 49.953885 111.219534 81.792758 186.168573 81.792758 123.174794 0 224.70142-86.001786 239.384454-197.047293 76.596226-37.674853 128.824605-112.579374 128.824606-198.896838 0-124.162297-108.026338-224.810693-241.282565-224.810693z" fill="#97C799" opacity=".51" p-id="1166"></path><path d="M328.271854 486.179228c0-0.004047 124.939348 24.452837 124.939348 146.745354 0 0 33.643899 207.683185-96.390802 354.651132h300.257531c-2.970603-4.124039-262.258906-350.514952 26.306429-556.429535-175.985961 100.591737-355.112506 55.033049-355.112506 55.033049z" fill="#DEB895" p-id="1167"></path><path d="M600.397695 485.843315s-189.576267 244.771202-43.879123 501.732399h100.563406s-200.483317-268.875985-56.684283-501.732399z" fill="#6E6E96" opacity=".15" p-id="1168"></path><path d="M809.465002 574.730715m-80.942857 0a80.942858 80.942858 0 1 0 161.885715 0 80.942858 80.942858 0 1 0-161.885715 0Z" fill="#FFA8A8" p-id="1169"></path><path d="M469.505 275.242141m-80.942858 0a80.942858 80.942858 0 1 0 161.885715 0 80.942858 80.942858 0 1 0-161.885715 0Z" fill="#FFA8A8" p-id="1170"></path><path d="M277.383079 661.084603m-80.942857 0a80.942858 80.942858 0 1 0 161.885715 0 80.942858 80.942858 0 1 0-161.885715 0Z" fill="#FFA8A8" p-id="1171"></path></svg>
