<svg t="1654057719438" class="icon" viewBox="0 0 1024 1024" version="1.1" xmlns="http://www.w3.org/2000/svg" p-id="2222" width="200" height="200"><path d="M60.999858 426.437604a28.596126 28.596126 0 0 1 34.110688-12.336699l4.661794 2.103493L345.426142 555.887663c13.587424 7.731756 18.192367 24.7871 10.40376 38.147119a28.596126 28.596126 0 0 1-34.110688 12.39355l-4.661794-2.160343-74.531852-42.410955-117.852426 232.18008a21.376031 21.376031 0 0 0 14.951851 30.358512l4.377539 0.454809h256.398668v-102.332062c0-13.701126 10.062653-25.128207 23.30897-27.459104l5.116603-0.454809c13.87168 0 25.469313 9.835248 27.857062 22.911012l0.454809 5.002901v272.885501a28.141317 28.141317 0 0 1-28.368722 27.970763 28.25502 28.25502 0 0 1-27.857061-22.911011l-0.511661-5.002901V880.678261h-256.398668c-43.263722 0-78.340879-34.508646-78.34088-77.090154 0-8.982481 1.591832-17.908111 4.661794-26.322081l3.581623-8.186565 119.387406-235.193191L71.403618 464.584723a27.743359 27.743359 0 0 1-12.507252-33.542176l2.103492-4.604943z m902.000284 23.422672a27.686508 27.686508 0 0 1-10.40376 38.20397l-111.428246 63.389028 110.461776 217.626187c19.32939 38.090268 3.638473 84.423952-35.077157 103.469086-8.129714 3.97958-16.941642 6.594733-25.412462 7.618054l-8.357118 0.51166-198.694756 8.527672v106.254792a28.084466 28.084466 0 0 1-23.252119 27.459103l-5.116603 0.454809a28.25502 28.25502 0 0 1-27.857061-22.911011l-0.45481-5.002901v-272.942352c0-15.406661 12.677806-27.913913 28.368722-27.913913 13.928531 0 25.469313 9.835248 27.857062 22.911012l0.51166 5.002901v110.746032l197.387179-8.41397a21.887691 21.887691 0 0 0 9.664695-2.274045 21.148626 21.148626 0 0 0 11.199676-24.445993l-1.534981-4.093283-108.983647-214.556225-84.935612 48.266623a28.596126 28.596126 0 0 1-38.772482-10.233206 27.686508 27.686508 0 0 1 10.40376-38.147119l245.653802-139.683266a28.596126 28.596126 0 0 1 38.772482 10.233206zM547.816222 8.240574c12.620954 6.196775 23.252119 15.634065 30.813321 27.28855l4.206985 7.163244 131.155594 258.44531 96.76065-55.031909a28.596126 28.596126 0 0 1 38.772482 10.233206 27.686508 27.686508 0 0 1-10.40376 38.090268l-245.653802 139.740117a28.596126 28.596126 0 0 1-38.772481-10.233207 27.686508 27.686508 0 0 1 10.403759-38.147118l99.660059-56.680593L532.068455 67.706872a21.83084 21.83084 0 0 0-36.271032-3.695324l-2.274045 3.581622-123.025881 244.459928 88.403533 50.256413c12.109294 6.822138 17.055344 21.148626 12.507252 33.599027l-2.103493 4.548092a28.596126 28.596126 0 0 1-34.110687 12.39355l-4.661794-2.160344-245.653802-139.683265a27.686508 27.686508 0 0 1-10.40376-38.147119 28.596126 28.596126 0 0 1 34.110688-12.336699l4.661794 2.103492 108.017177 61.456089L442.641602 42.692368A78.909391 78.909391 0 0 1 547.816222 8.240574z" p-id="2223" fill="#707070"></path></svg>
